# xmcd
#
# Track frame offsets: 
#        150
#        13202
#        28030
#        48440
#        62980
#        78667
#        91875
#        105885
#        123310
#        141572
#
# Disc length: 2089 seconds
#
# Revision: 0
# Processed by: cddbd v1.5.1PL0 Copyright (c) Steve Scherf et al.
# Submitted via: ExactAudioCopy v0.95a5
#
DISCID=8508270a
DTITLE=Fred McCarty - The Contender
DYEAR=1998
DGENRE=Country
TTITLE0=The Great Design
TTITLE1=Breakfast In Texas
TTITLE2=The Contender
TTITLE3=It's Up To Me And You
TTITLE4=No Hiding In Make Believe
TTITLE5=Looking For Lucky
TTITLE6=It Ain't Rocket Science
TTITLE7=Celebrate Our Love Tonight
TTITLE8=Bad News Travels Fast
TTITLE9=Oh, Joni Bobbi Sue
EXTD=
EXTT0=
EXTT1=
EXTT2=
EXTT3=
EXTT4=
EXTT5=
EXTT6=
EXTT7=
EXTT8=
EXTT9=
PLAYORDER=
